<svg width="194" height="178" viewBox="0 0 194 178" fill="none" xmlns="http://www.w3.org/2000/svg">
<path d="M183.388 120.262H194L180.123 104.166C160.261 81.0855 132.78 68.0267 103.938 68.0267H100.673H93.5989H90.0617C61.4923 68.0267 34.0112 81.0855 13.8766 104.166L0 120.262H10.6115C39.1809 120.262 66.662 107.203 86.7966 84.1224L97.136 72.2784C91.1501 112.973 39.1809 177.356 39.1809 177.356H97.4081H155.635C155.635 177.356 104.21 113.884 97.6802 73.1895L107.203 84.4261C127.066 107.203 154.547 120.262 183.388 120.262Z" fill="white"/>
<path d="M88.429 44.339L96.8638 34.6209L105.299 44.339C121.624 63.4716 144.479 74.1008 168.151 74.1008H176.858L165.43 60.7384C149.105 41.6058 126.249 30.9766 102.578 30.9766H99.8568H93.8708H91.1499C67.4781 30.9766 44.8946 41.6058 28.2972 60.7384L16.8694 74.4045H25.5763C49.2481 74.4045 72.1036 63.4716 88.429 44.339Z" fill="white"/>
<path d="M90.0622 10.9329L96.8644 3.03692L103.667 10.9329C116.999 26.4212 135.501 35.2282 154.82 35.2282H161.894L152.643 24.2953C139.31 8.80706 120.808 0 101.49 0H99.3132H94.4156H92.2389C72.9205 0 54.4184 8.80706 41.086 24.2953L31.835 35.2282H38.9093C58.2277 35.2282 76.7298 26.4212 90.0622 10.9329Z" fill="white"/>
</svg>
